<?xml version="1.0" encoding="UTF-8" standalone="no"?>
<svg
   xmlns:dc="http://purl.org/dc/elements/1.1/"
   xmlns:cc="http://creativecommons.org/ns#"
   xmlns:rdf="http://www.w3.org/1999/02/22-rdf-syntax-ns#"
   xmlns:svg="http://www.w3.org/2000/svg"
   xmlns="http://www.w3.org/2000/svg"
   height="9.3029985"
   width="43.463108"
   id="svg8"
   version="1.1"
   viewBox="0 0 43.463109 9.3029985">
  <metadata
     id="metadata14">
    <rdf:RDF>
      <cc:Work
         rdf:about="">
        <dc:format>image/svg+xml</dc:format>
        <dc:type
           rdf:resource="http://purl.org/dc/dcmitype/StillImage" />
        <dc:title></dc:title>
      </cc:Work>
    </rdf:RDF>
  </metadata>
  <defs
     id="defs12" />
  <g
     transform="translate(-0.092782,-0.134992)"
     style="stroke-linejoin:bevel"
     id="g6">
    <path
       style="fill:#ffffff;fill-opacity:0.58823529;stroke-linecap:round;paint-order:markers fill stroke"
       id="path2"
       transform="matrix(0.30094,0,0,0.29347,-22.568,-15.595)"
       d="m 104.5,60.2 -4,-6.6 L 90,72 83.3,60.2 H 90 l 4,-6.6 H 79.3 l -4,6.6 14.6,25 z" />
    <path
       style="fill:#ffffff;fill-opacity:1"
       id="path4"
       transform="matrix(0.30094,0,0,0.29347,-22.568,-15.595)"
       d="m 105,85.3 -4,-8 13.2,-23.7 4,8 z" />
    <text
       id="text881"
       y="-5.9844398"
       x="1.5939865"
       style="font-style:normal;font-variant:normal;font-weight:normal;font-stretch:normal;font-size:6.66666651px;line-height:1.25;font-family:Caveat;-inkscape-font-specification:Caveat;letter-spacing:0px;word-spacing:0px;fill:#000000;fill-opacity:1;stroke:none"
       xml:space="preserve"><tspan
         y="-0.071741581"
         x="1.5939865"
         id="tspan879"></tspan></text>
    <g
       id="text875"
       style="font-style:normal;font-variant:normal;font-weight:normal;font-stretch:normal;font-size:4.34959364px;line-height:1.25;font-family:Caveat;-inkscape-font-specification:Caveat;letter-spacing:0px;word-spacing:0px;fill:#000000;fill-opacity:1;stroke:none;stroke-width:0.65243906"
       aria-label="APPLICATION">
      <path
         id="path918"
         style="font-style:italic;font-variant:normal;font-weight:normal;font-stretch:normal;font-family:'Roboto Black';-inkscape-font-specification:'Roboto Black, Italic';fill:#ffffff;fill-opacity:1;stroke-width:0.65243906"
         d="m 17.955303,7.2855379 h -0.987578 l -0.273974,0.5776804 h -0.800682 l 1.637469,-3.0922892 h 0.683872 l 0.571309,3.0922892 H 18.029637 Z M 17.239574,6.7099813 h 0.641395 L 17.745045,5.6438212 Z" />
      <path
         id="path920"
         style="font-style:italic;font-variant:normal;font-weight:normal;font-stretch:normal;font-family:'Roboto Black';-inkscape-font-specification:'Roboto Black, Italic';fill:#ffffff;fill-opacity:1;stroke-width:0.65243906"
         d="m 19.943203,6.8140487 -0.182648,1.0491696 h -0.726349 l 0.535204,-3.0922892 1.110761,0.00212 q 0.516089,0 0.811301,0.2867164 0.297335,0.2867164 0.26123,0.7433387 -0.02549,0.3122023 -0.199639,0.5415754 -0.174154,0.2293731 -0.46087,0.3504311 -0.284593,0.1210581 -0.639272,0.1210581 z m 0.09982,-0.5755565 0.437508,0.00425 q 0.276097,-0.00637 0.422641,-0.1784013 0.146544,-0.1741536 0.116811,-0.4268888 -0.01699,-0.1295533 -0.09982,-0.2038872 -0.0807,-0.076458 -0.214506,-0.084953 l -0.507595,-0.00212 z" />
      <path
         id="path922"
         style="font-style:italic;font-variant:normal;font-weight:normal;font-stretch:normal;font-family:'Roboto Black';-inkscape-font-specification:'Roboto Black, Italic';fill:#ffffff;fill-opacity:1;stroke-width:0.65243906"
         d="M 22.710547,6.8140487 22.527899,7.8632183 H 21.80155 l 0.535204,-3.0922892 1.110761,0.00212 q 0.516089,0 0.811301,0.2867164 0.297335,0.2867164 0.26123,0.7433387 -0.02549,0.3122023 -0.199639,0.5415754 -0.174154,0.2293731 -0.46087,0.3504311 -0.284593,0.1210581 -0.639272,0.1210581 z m 0.09982,-0.5755565 0.437508,0.00425 q 0.276097,-0.00637 0.422641,-0.1784013 0.146544,-0.1741536 0.116811,-0.4268888 -0.01699,-0.1295533 -0.09982,-0.2038872 -0.08071,-0.076458 -0.214506,-0.084953 l -0.507595,-0.00212 z" />
      <path
         id="path924"
         style="font-style:italic;font-variant:normal;font-weight:normal;font-stretch:normal;font-family:'Roboto Black';-inkscape-font-specification:'Roboto Black, Italic';fill:#ffffff;fill-opacity:1;stroke-width:0.65243906"
         d="m 25.395062,7.2897856 h 1.259429 l -0.09982,0.5734327 h -1.985777 l 0.535204,-3.0922892 h 0.728472 z" />
      <path
         id="path926"
         style="font-style:italic;font-variant:normal;font-weight:normal;font-stretch:normal;font-family:'Roboto Black';-inkscape-font-specification:'Roboto Black, Italic';fill:#ffffff;fill-opacity:1;stroke-width:0.65243906"
         d="M 27.652688,7.8632183 H 26.92634 l 0.537328,-3.0922892 h 0.724224 z" />
      <path
         id="path928"
         style="font-style:italic;font-variant:normal;font-weight:normal;font-stretch:normal;font-family:'Roboto Black';-inkscape-font-specification:'Roboto Black, Italic';fill:#ffffff;fill-opacity:1;stroke-width:0.65243906"
         d="m 30.761968,6.8098011 q -0.02761,0.3249452 -0.214507,0.5776804 -0.184772,0.2527352 -0.488479,0.38866 -0.301583,0.1359248 -0.654138,0.1295533 -0.484232,-0.010619 -0.762454,-0.3122023 -0.278221,-0.3015831 -0.303707,-0.8176726 -0.01911,-0.3440597 0.07433,-0.7497102 0.09557,-0.4056506 0.307955,-0.7051099 0.214506,-0.3015832 0.503346,-0.4502509 0.290965,-0.1507916 0.635024,-0.1444201 0.505471,0.0085 0.798558,0.3037069 0.295212,0.2952117 0.320698,0.813425 l -0.724224,-0.00212 q 0.0042,-0.2824687 -0.101944,-0.4035268 -0.106191,-0.121058 -0.335564,-0.1295533 -0.573433,-0.019114 -0.698739,0.8920065 -0.05734,0.4120221 -0.05734,0.5882995 -0.01062,0.522461 0.386536,0.5373278 0.256983,0.0085 0.409898,-0.1253057 0.152916,-0.1359248 0.195392,-0.3822885 z" />
      <path
         id="path930"
         style="font-style:italic;font-variant:normal;font-weight:normal;font-stretch:normal;font-family:'Roboto Black';-inkscape-font-specification:'Roboto Black, Italic';fill:#ffffff;fill-opacity:1;stroke-width:0.65243906"
         d="M 32.777478,7.2855379 H 31.7899 l -0.273974,0.5776804 h -0.800682 l 1.637469,-3.0922892 h 0.683872 l 0.571309,3.0922892 H 32.851812 Z M 32.061749,6.7099813 h 0.641395 L 32.56722,5.6438212 Z" />
      <path
         id="path932"
         style="font-style:italic;font-variant:normal;font-weight:normal;font-stretch:normal;font-family:'Roboto Black';-inkscape-font-specification:'Roboto Black, Italic';fill:#ffffff;fill-opacity:1;stroke-width:0.65243906"
         d="M 36.396476,5.3464857 H 35.495974 L 35.06059,7.8632183 h -0.728472 l 0.437508,-2.5167326 h -0.885635 l 0.101944,-0.5755566 h 2.510361 z" />
      <path
         id="path934"
         style="font-style:italic;font-variant:normal;font-weight:normal;font-stretch:normal;font-family:'Roboto Black';-inkscape-font-specification:'Roboto Black, Italic';fill:#ffffff;fill-opacity:1;stroke-width:0.65243906"
         d="M 37.056986,7.8632183 H 36.330638 L 36.867965,4.7709291 H 37.59219 Z" />
      <path
         id="path936"
         style="font-style:italic;font-variant:normal;font-weight:normal;font-stretch:normal;font-family:'Roboto Black';-inkscape-font-specification:'Roboto Black, Italic';fill:#ffffff;fill-opacity:1;stroke-width:0.65243906"
         d="M 38.851618,7.9056948 Q 38.36951,7.8950757 38.078546,7.5871211 37.787582,7.2791664 37.749353,6.7630769 q -0.02124,-0.254859 0.04035,-0.5989186 0.06159,-0.3461835 0.218754,-0.6371475 0.157163,-0.290964 0.392908,-0.4842321 0.395031,-0.3249452 0.908997,-0.3143261 0.31645,0.00637 0.552195,0.1465439 0.237868,0.1380486 0.380164,0.3992791 0.142297,0.2612305 0.165659,0.594671 0.01699,0.2357446 -0.02973,0.5373277 -0.0446,0.2994594 -0.167782,0.5734328 -0.121058,0.2718496 -0.314326,0.4799845 -0.193268,0.2081348 -0.456623,0.3313167 -0.26123,0.121058 -0.588299,0.1146865 z M 39.67991,5.8625751 Q 39.65867,5.3316189 39.267888,5.3103806 38.966304,5.2955136 38.768789,5.5503729 38.571273,5.803108 38.507558,6.2979593 q -0.04035,0.3058308 -0.02973,0.4736129 0.02124,0.5394516 0.416269,0.5543184 0.259107,0.012743 0.446004,-0.1847728 0.186896,-0.1996396 0.269725,-0.5776804 0.08283,-0.3801647 0.07009,-0.7008623 z" />
      <path
         id="path938"
         style="font-style:italic;font-variant:normal;font-weight:normal;font-stretch:normal;font-family:'Roboto Black';-inkscape-font-specification:'Roboto Black, Italic';fill:#ffffff;fill-opacity:1;stroke-width:0.65243906"
         d="M 43.018562,7.8632183 H 42.315576 L 41.576485,5.9114231 41.236673,7.8632183 h -0.726349 l 0.535204,-3.0922892 h 0.709358 l 0.736967,1.9517952 0.337688,-1.9517952 h 0.726349 z" />
    </g>
    <g
       id="text887"
       style="font-style:normal;font-variant:normal;font-weight:normal;font-stretch:normal;font-size:4.34959364px;line-height:1.25;font-family:Caveat;-inkscape-font-specification:Caveat;letter-spacing:0px;word-spacing:0px;fill:#000000;fill-opacity:1;stroke:none;stroke-width:0.65243906"
       aria-label="Your">
      <path
         id="path941"
         style="font-style:italic;font-variant:normal;font-weight:bold;font-stretch:normal;font-size:2.60975623px;font-family:Roboto;-inkscape-font-specification:'Roboto Bold Italic';fill:#ffffff;fill-opacity:1;stroke-width:0.65243906"
         d="m 20.643975,2.5412316 0.518638,-0.833389 h 0.428163 l -0.810451,1.2029346 -0.112138,0.652439 h -0.37974 l 0.121058,-0.6944908 -0.384837,-1.1596085 0.393757,-0.00127 z" />
      <path
         id="path943"
         style="font-style:italic;font-variant:normal;font-weight:bold;font-stretch:normal;font-size:2.60975623px;font-family:Roboto;-inkscape-font-specification:'Roboto Bold Italic';fill:#ffffff;fill-opacity:1;stroke-width:0.65243906"
         d="m 22.115786,2.1589431 q 0.182224,0.00255 0.313477,0.094298 0.132526,0.090475 0.193692,0.2510361 0.06244,0.1592869 0.0446,0.3542541 -0.02931,0.3287681 -0.229373,0.5326553 -0.19879,0.2026129 -0.491878,0.1975157 -0.179676,-0.00255 -0.310928,-0.091749 -0.131253,-0.090475 -0.193693,-0.2497619 -0.06244,-0.1592868 -0.0446,-0.3517054 0.03313,-0.3415111 0.231921,-0.5428497 0.19879,-0.2013386 0.486781,-0.1936928 z M 21.752612,3.026738 q 0.0025,0.1223323 0.05734,0.1936928 0.0548,0.070086 0.15419,0.072635 0.165658,0.0051 0.259956,-0.1516411 0.0943,-0.1580126 0.08793,-0.4141459 -0.0051,-0.1223324 -0.05989,-0.1949672 -0.05352,-0.073909 -0.15419,-0.076458 -0.160561,-0.0051 -0.257408,0.1516411 -0.09557,0.155464 -0.08793,0.4192431 z" />
      <path
         id="path945"
         style="font-style:italic;font-variant:normal;font-weight:bold;font-stretch:normal;font-size:2.60975623px;font-family:Roboto;-inkscape-font-specification:'Roboto Bold Italic';fill:#ffffff;fill-opacity:1;stroke-width:0.65243906"
         d="m 23.624551,3.4204952 q -0.152915,0.1720298 -0.37974,0.1682069 -0.19879,-0.00255 -0.300733,-0.142721 -0.101944,-0.1401725 -0.07901,-0.3695456 L 23.014164,2.184429 h 0.359351 l -0.151641,0.8958294 q -0.0051,0.042052 -0.0013,0.079006 0.01274,0.1274295 0.141446,0.1312524 0.166933,0.0051 0.276522,-0.1287038 l 0.17203,-0.9773843 h 0.3619 l -0.239567,1.3787872 h -0.33514 z" />
      <path
         id="path947"
         style="font-style:italic;font-variant:normal;font-weight:bold;font-stretch:normal;font-size:2.60975623px;font-family:Roboto;-inkscape-font-specification:'Roboto Bold Italic';fill:#ffffff;fill-opacity:1;stroke-width:0.65243906"
         d="M 25.144785,2.5297629 Q 25.070876,2.51702 25.023727,2.51702 24.831309,2.5119228 24.719171,2.6610153 L 24.559884,3.5632162 H 24.200533 L 24.4401,2.184429 l 0.337688,-0.00127 -0.03313,0.1682069 q 0.129979,-0.1949671 0.321123,-0.1949671 0.05352,0 0.124881,0.01784 z" />
    </g>
  </g>
</svg>
