<?xml version="1.0" encoding="UTF-8" standalone="no"?>
<svg
   xmlns:dc="http://purl.org/dc/elements/1.1/"
   xmlns:cc="http://creativecommons.org/ns#"
   xmlns:rdf="http://www.w3.org/1999/02/22-rdf-syntax-ns#"
   xmlns:svg="http://www.w3.org/2000/svg"
   xmlns="http://www.w3.org/2000/svg"
   viewBox="0 0 803.58313 193.29485"
   version="1.1"
   id="svg33"
   width="803.58313"
   height="193.29485">
  <metadata
     id="metadata37">
    <rdf:RDF>
      <cc:Work
         rdf:about="">
        <dc:format>image/svg+xml</dc:format>
        <dc:type
           rdf:resource="http://purl.org/dc/dcmitype/StillImage" />
        <dc:title></dc:title>
      </cc:Work>
    </rdf:RDF>
  </metadata>
  <defs
     id="defs9">
    <style
       id="style2">.cls-1{fill:url(#linear-gradient);}.cls-2{fill:#fff;}</style>
    <linearGradient
       id="linear-gradient"
       x1="136.75"
       y1="71.959999"
       x2="0"
       y2="71.959999"
       gradientUnits="userSpaceOnUse">
      <stop
         offset="0"
         stop-color="#ffa448"
         id="stop4" />
      <stop
         offset="1"
         stop-color="#ff4459"
         id="stop6" />
    </linearGradient>
  </defs>
  <path
     style="opacity:0.98999999;fill:#18c659;fill-opacity:0.19323671;fill-rule:nonzero;stroke:none;stroke-width:0.43478262;stroke-linecap:round;stroke-linejoin:round;stroke-miterlimit:4;stroke-dasharray:none;stroke-dashoffset:0;stroke-opacity:1"
     d="M 177.80949,53.47112 A 53.471128,53.471128 0 0 1 124.33837,106.94226 53.471128,53.471128 0 0 1 70.867243,53.47112 53.471128,53.471128 0 0 1 124.33837,0 53.471128,53.471128 0 0 1 177.80949,53.47112 Z"
     id="path919" />
  <g
     aria-label="cuMusicalio"
     id="text911"
     style="font-style:normal;font-variant:normal;font-weight:normal;font-stretch:normal;font-size:6.66667px;line-height:1.25;font-family:Caveat;-inkscape-font-specification:Caveat;letter-spacing:0px;word-spacing:0px;fill:#000000;fill-opacity:1;stroke:none">
    <path
       d="m 223.26433,105.9401 q -0.66,0.84 -1.32,1.32 -0.6,0.48 -1.8,0.48 -1.14,0 -2.22,-0.66 -1.08,-0.72 -2.58,-1.56 -1.5,-0.9 -3.6,-1.56 -2.04,-0.72 -5.1,-0.72 -3.9,0 -6.84,1.44 -2.94,1.38 -4.92,4.02 -1.92,2.64 -2.88,6.42 -0.96,3.72 -0.96,8.46 0,4.92 1.02,8.76 1.08,3.84 3.06,6.48 1.98,2.58 4.8,3.96 2.82,1.32 6.36,1.32 3.54,0 5.7,-0.84 2.22,-0.9 3.72,-1.92 1.5,-1.08 2.58,-1.92 1.14,-0.9 2.52,-0.9 1.8,0 2.7,1.38 l 4.26,5.4 q -2.46,2.88 -5.34,4.86 -2.88,1.92 -6,3.12 -3.06,1.14 -6.36,1.62 -3.24,0.48 -6.48,0.48 -5.7,0 -10.74,-2.1 -5.04,-2.16 -8.82,-6.24 -3.78,-4.08 -6,-9.96 -2.16,-5.94 -2.16,-13.5 0,-6.78 1.92,-12.54 1.98,-5.82 5.76,-10.02 3.78,-4.259997 9.36,-6.659997 5.58,-2.4 12.84,-2.4 6.9,0 12.06,2.22 5.22,2.22 9.36,6.359997 z"
       style="font-style:normal;font-variant:normal;font-weight:bold;font-stretch:normal;font-size:120px;font-family:Lato;-inkscape-font-specification:'Lato Bold';fill:#18c659;fill-opacity:1"
       id="path840" />
    <path
       d="M 290.04414,92.920103 V 154.4801 h -9.06 q -2.94,0 -3.72,-2.7 l -1.02,-4.92 q -3.78,3.84 -8.34,6.24 -4.56,2.34 -10.74,2.34 -5.04,0 -8.94,-1.68 -3.84,-1.74 -6.48,-4.86 -2.64,-3.12 -4.02,-7.38 -1.32,-4.32 -1.32,-9.48 V 92.920103 h 14.82 V 132.0401 q 0,5.64 2.58,8.76 2.64,3.06 7.86,3.06 3.84,0 7.2,-1.68 3.36,-1.74 6.36,-4.74 V 92.920103 Z"
       style="font-style:normal;font-variant:normal;font-weight:bold;font-stretch:normal;font-size:120px;font-family:Lato;-inkscape-font-specification:'Lato Bold';fill:#18c659;fill-opacity:1"
       id="path842" />
    <path
       d="M 400.20385,67.720103 V 154.4801 h -14.22 V 98.440103 q 0,-3.36 0.36,-7.26 l -26.22,49.259997 q -1.86,3.54 -5.7,3.54 h -2.28 q -3.84,0 -5.7,-3.54 l -26.52,-49.439997 q 0.18,1.98 0.3,3.9 0.12,1.92 0.12,3.54 V 154.4801 h -14.22 V 67.720103 h 12.18 q 1.08,0 1.86,0.06 0.78,0.06 1.38,0.3 0.66,0.24 1.14,0.78 0.54,0.54 1.02,1.44 l 25.98,48.179997 q 1.02,1.92 1.86,3.96 0.9,2.04 1.74,4.2 0.84,-2.22 1.74,-4.26 0.9,-2.1 1.92,-4.02 l 25.62,-48.059997 q 0.48,-0.9 1.02,-1.44 0.54,-0.54 1.14,-0.78 0.66,-0.24 1.44,-0.3 0.78,-0.06 1.86,-0.06 z"
       style="font-style:normal;font-variant:normal;font-weight:bold;font-stretch:normal;font-size:120px;font-family:Lato;-inkscape-font-specification:'Lato Bold';fill:#18c659;fill-opacity:1"
       id="path844" />
    <path
       d="M 469.08375,92.920103 V 154.4801 h -9.06 q -2.94,0 -3.72,-2.7 l -1.02,-4.92 q -3.78,3.84 -8.34,6.24 -4.56,2.34 -10.74,2.34 -5.04,0 -8.94,-1.68 -3.84,-1.74 -6.48,-4.86 -2.64,-3.12 -4.02,-7.38 -1.32,-4.32 -1.32,-9.48 V 92.920103 h 14.82 V 132.0401 q 0,5.64 2.58,8.76 2.64,3.06 7.86,3.06 3.84,0 7.2,-1.68 3.36,-1.74 6.36,-4.74 V 92.920103 Z"
       style="font-style:normal;font-variant:normal;font-weight:bold;font-stretch:normal;font-size:120px;font-family:Lato;-inkscape-font-specification:'Lato Bold';fill:#18c659;fill-opacity:1"
       id="path846" />
    <path
       d="m 521.28366,104.9201 q -0.6,0.96 -1.26,1.38 -0.66,0.36 -1.68,0.36 -1.08,0 -2.34,-0.6 -1.2,-0.6 -2.82,-1.32 -1.62,-0.78 -3.72,-1.38 -2.04,-0.6 -4.86,-0.6 -4.38,0 -6.9,1.86 -2.46,1.86 -2.46,4.86 0,1.98 1.26,3.36 1.32,1.32 3.42,2.34 2.16,1.02 4.86,1.86 2.7,0.78 5.46,1.74 2.82,0.96 5.52,2.22 2.7,1.2 4.8,3.12 2.16,1.86 3.42,4.5 1.32,2.64 1.32,6.36 0,4.44 -1.62,8.22 -1.56,3.72 -4.68,6.48 -3.12,2.7 -7.74,4.26 -4.56,1.5 -10.56,1.5 -3.18,0 -6.24,-0.6 -3,-0.54 -5.82,-1.56 -2.76,-1.02 -5.16,-2.4 -2.34,-1.38 -4.14,-3 l 3.42,-5.64 q 0.66,-1.02 1.56,-1.56 0.9,-0.54 2.28,-0.54 1.38,0 2.58,0.78 1.26,0.78 2.88,1.68 1.62,0.9 3.78,1.68 2.22,0.78 5.58,0.78 2.64,0 4.5,-0.6 1.92,-0.66 3.12,-1.68 1.26,-1.02 1.8,-2.34 0.6,-1.38 0.6,-2.82 0,-2.16 -1.32,-3.54 -1.26,-1.38 -3.42,-2.4 -2.1,-1.02 -4.86,-1.8 -2.7,-0.84 -5.58,-1.8 -2.82,-0.96 -5.58,-2.22 -2.7,-1.32 -4.86,-3.3 -2.1,-1.98 -3.42,-4.86 -1.26,-2.88 -1.26,-6.96 0,-3.78 1.5,-7.2 1.5,-3.42 4.38,-5.939997 2.94,-2.58 7.26,-4.08 4.38,-1.56 10.08,-1.56 6.36,0 11.58,2.1 5.22,2.1 8.7,5.52 z"
       style="font-style:normal;font-variant:normal;font-weight:bold;font-stretch:normal;font-size:120px;font-family:Lato;-inkscape-font-specification:'Lato Bold';fill:#18c659;fill-opacity:1"
       id="path848" />
    <path
       d="M 551.82352,92.920103 V 154.4801 h -14.88 V 92.920103 Z m 2.04,-17.94 q 0,1.92 -0.78,3.6 -0.78,1.68 -2.1,2.94 -1.26,1.26 -3,2.04 -1.74,0.72 -3.72,0.72 -1.92,0 -3.66,-0.72 -1.68,-0.78 -2.94,-2.04 -1.26,-1.26 -2.04,-2.94 -0.72,-1.68 -0.72,-3.6 0,-1.98 0.72,-3.72 0.78,-1.74 2.04,-3 1.26,-1.26 2.94,-1.98 1.74,-0.78 3.66,-0.78 1.98,0 3.72,0.78 1.74,0.72 3,1.98 1.32,1.26 2.1,3 0.78,1.74 0.78,3.72 z"
       style="font-style:normal;font-variant:normal;font-weight:bold;font-stretch:normal;font-size:120px;font-family:Lato;-inkscape-font-specification:'Lato Bold';fill:#18c659;fill-opacity:1"
       id="path850" />
    <path
       d="m 611.0435,105.9401 q -0.66,0.84 -1.32,1.32 -0.6,0.48 -1.8,0.48 -1.14,0 -2.22,-0.66 -1.08,-0.72 -2.58,-1.56 -1.5,-0.9 -3.6,-1.56 -2.04,-0.72 -5.1,-0.72 -3.9,0 -6.84,1.44 -2.94,1.38 -4.92,4.02 -1.92,2.64 -2.88,6.42 -0.96,3.72 -0.96,8.46 0,4.92 1.02,8.76 1.08,3.84 3.06,6.48 1.98,2.58 4.8,3.96 2.82,1.32 6.36,1.32 3.54,0 5.7,-0.84 2.22,-0.9 3.72,-1.92 1.5,-1.08 2.58,-1.92 1.14,-0.9 2.52,-0.9 1.8,0 2.7,1.38 l 4.26,5.4 q -2.46,2.88 -5.34,4.86 -2.88,1.92 -6,3.12 -3.06,1.14 -6.36,1.62 -3.24,0.48 -6.48,0.48 -5.7,0 -10.74,-2.1 -5.04,-2.16 -8.82,-6.24 -3.78,-4.08 -6,-9.96 -2.16,-5.94 -2.16,-13.5 0,-6.78 1.92,-12.54 1.98,-5.82 5.76,-10.02 3.78,-4.259997 9.36,-6.659997 5.58,-2.4 12.84,-2.4 6.9,0 12.06,2.22 5.22,2.22 9.36,6.359997 z"
       style="font-style:normal;font-variant:normal;font-weight:bold;font-stretch:normal;font-size:120px;font-family:Lato;-inkscape-font-specification:'Lato Bold';fill:#18c659;fill-opacity:1"
       id="path852" />
    <path
       d="m 657.30329,128.2001 q -6.42,0.3 -10.8,1.14 -4.38,0.78 -7.02,2.04 -2.64,1.26 -3.78,2.94 -1.14,1.68 -1.14,3.66 0,3.9 2.28,5.58 2.34,1.68 6.06,1.68 4.56,0 7.86,-1.62 3.36,-1.68 6.54,-5.04 z m -33.96,-26.7 q 10.62,-9.719997 25.56,-9.719997 5.4,0 9.66,1.8 4.26,1.74 7.2,4.92 2.94,3.119997 4.44,7.499997 1.56,4.38 1.56,9.6 v 38.88 h -6.72 q -2.1,0 -3.24,-0.6 -1.14,-0.66 -1.8,-2.58 l -1.32,-4.44 q -2.34,2.1 -4.56,3.72 -2.22,1.56 -4.62,2.64 -2.4,1.08 -5.16,1.62 -2.7,0.6 -6,0.6 -3.9,0 -7.2,-1.02 -3.3,-1.08 -5.7,-3.18 -2.4,-2.1 -3.72,-5.22 -1.32,-3.12 -1.32,-7.26 0,-2.34 0.78,-4.62 0.78,-2.34 2.52,-4.44 1.8,-2.1 4.62,-3.96 2.82,-1.86 6.9,-3.24 4.14,-1.38 9.6,-2.22 5.46,-0.9 12.48,-1.08 v -3.6 q 0,-6.18 -2.64,-9.12 -2.64,-3 -7.62,-3 -3.6,0 -6,0.84 -2.34,0.84 -4.14,1.92 -1.8,1.02 -3.3,1.86 -1.44,0.84 -3.24,0.84 -1.56,0 -2.64,-0.78 -1.08,-0.84 -1.74,-1.92 z"
       style="font-style:normal;font-variant:normal;font-weight:bold;font-stretch:normal;font-size:120px;font-family:Lato;-inkscape-font-specification:'Lato Bold';fill:#18c659;fill-opacity:1"
       id="path854" />
    <path
       d="M 700.68325,65.320103 V 154.4801 h -14.82 V 65.320103 Z"
       style="font-style:normal;font-variant:normal;font-weight:bold;font-stretch:normal;font-size:120px;font-family:Lato;-inkscape-font-specification:'Lato Bold';fill:#18c659;fill-opacity:1"
       id="path856" />
    <path
       d="M 730.86314,92.920103 V 154.4801 h -14.88 V 92.920103 Z m 2.04,-17.94 q 0,1.92 -0.78,3.6 -0.78,1.68 -2.1,2.94 -1.26,1.26 -3,2.04 -1.74,0.72 -3.72,0.72 -1.92,0 -3.66,-0.72 -1.68,-0.78 -2.94,-2.04 -1.26,-1.26 -2.04,-2.94 -0.72,-1.68 -0.72,-3.6 0,-1.98 0.72,-3.72 0.78,-1.74 2.04,-3 1.26,-1.26 2.94,-1.98 1.74,-0.78 3.66,-0.78 1.98,0 3.72,0.78 1.74,0.72 3,1.98 1.32,1.26 2.1,3 0.78,1.74 0.78,3.72 z"
       style="font-style:normal;font-variant:normal;font-weight:bold;font-stretch:normal;font-size:120px;font-family:Lato;-inkscape-font-specification:'Lato Bold';fill:#18c659;fill-opacity:1"
       id="path858" />
    <path
       d="m 773.22312,91.960103 q 6.84,0 12.42,2.22 5.64,2.22 9.6,6.299997 4.02,4.08 6.18,9.96 2.16,5.88 2.16,13.14 0,7.32 -2.16,13.2 -2.16,5.88 -6.18,10.02 -3.96,4.14 -9.6,6.36 -5.58,2.22 -12.42,2.22 -6.9,0 -12.54,-2.22 -5.64,-2.22 -9.66,-6.36 -3.96,-4.14 -6.18,-10.02 -2.16,-5.88 -2.16,-13.2 0,-7.26 2.16,-13.14 2.22,-5.88 6.18,-9.96 4.02,-4.079997 9.66,-6.299997 5.64,-2.22 12.54,-2.22 z m 0,52.019997 q 7.68,0 11.34,-5.16 3.72,-5.16 3.72,-15.12 0,-9.96 -3.72,-15.18 -3.66,-5.22 -11.34,-5.22 -7.8,0 -11.58,5.28 -3.72,5.22 -3.72,15.12 0,9.9 3.72,15.12 3.78,5.16 11.58,5.16 z"
       style="font-style:normal;font-variant:normal;font-weight:bold;font-stretch:normal;font-size:120px;font-family:Lato;-inkscape-font-specification:'Lato Bold';fill:#18c659;fill-opacity:1"
       id="path860" />
  </g>
  <path
     style="fill:#18c659;fill-opacity:1;stroke-width:0.09526866"
     d="m 138.88189,23.985288 -29.20592,12.540661 a 3.048597,3.048597 0 0 0 -1.77658,3.138551 l 2.9426,24.72973 a 13.242344,13.242344 0 0 0 -3.07138,-0.01063 c -5.01386,0.596606 -8.759103,3.791913 -8.361286,7.135131 0.397809,3.343207 4.788276,5.570443 9.802146,4.97384 5.01387,-0.596605 8.75912,-3.791916 8.36131,-7.135122 l -2.63045,-22.106429 23.37368,-9.97681 2.0781,17.464353 a 13.185183,13.185183 0 0 0 -3.07149,-0.01158 c -5.01387,0.596602 -8.75912,3.791913 -8.36131,7.135119 0.39782,3.343218 4.78829,5.570451 9.80216,4.973849 5.01388,-0.596604 8.75922,-3.790967 8.3613,-7.13513 l -3.96235,-33.299653 a 3.048597,3.048597 0 0 0 -4.28053,-2.415884 z"
     class=""
     id="path2" />
  <g
     id="Layer_2"
     data-name="Layer 2"
     style="fill:#18c659;fill-opacity:1"
     transform="translate(0.00113726,49.363169)">
    <g
       id="Layer_1-2"
       data-name="Layer 1"
       style="fill:#18c659;fill-opacity:1">
      <path
         style="fill:#18c659;fill-opacity:1"
         d="M 71.029297,0.57421875 A 32.61,32.61 0 0 0 53.5,10.072266 L 3.4296875,63.373047 a 12.47,12.47 0 0 0 0,17.179687 L 53.5,133.86328 a 32.61,32.61 0 0 0 23.769531,10.06836 h 48.050779 a 11.36,11.36 0 0 0 10.39063,-6.26953 10,10 0 0 0 -1.81055,-11.42969 L 83.111328,72.001953 101.35938,52.492188 a 53.471128,53.471128 0 0 1 -10.707036,-6.72461 l -16.041016,17.125 -5.871094,-6.269531 A 39.66,39.66 0 0 0 47.589844,44.921875 l -1.458985,-0.298828 a 39,39 0 0 0 -7.339843,-0.78125 L 63.111328,18.001953 A 19.46,19.46 0 0 1 71.560547,12.839844 53.471128,53.471128 0 0 1 70.84375,4.2714844 53.471128,53.471128 0 0 1 71.029297,0.57421875 Z M 38.183594,55.791016 a 24.25,24.25 0 0 1 0.146484,0.002 25.15,25.15 0 0 1 5,0.509765 l 1.460938,0.298828 a 26.83,26.83 0 0 1 14.269531,7.890626 l 7,7.470703 -7,7.46875 a 26.77,26.77 0 0 1 -14.269531,7.90039 l -1.460938,0.300781 a 24.53,24.53 0 0 1 -22.5,-6.849609 L 13,72.582031 A 0.91,0.91 0 0 1 12.740234,71.962891 1,1 0 0 1 13,71.341797 l 7.791016,-8.189453 A 24.25,24.25 0 0 1 38.183594,55.791016 Z M 74.611328,81.001953 122.29102,132.00195 H 77.269531 a 19.43,19.43 0 0 1 -14.169922,-6 L 38.78125,100.08203 a 39,39 0 0 0 7.349609,-0.779296 l 1.458985,-0.300781 A 39.64,39.64 0 0 0 68.740234,87.3125 Z"
         transform="translate(-4.8673877e-4,-0.00236318)"
         id="path11" />
    </g>
  </g>
</svg>
