<svg xmlns="http://www.w3.org/2000/svg" xmlns:xlink="http://www.w3.org/1999/xlink" viewBox="0 0 656 143.93"><defs><style>.cls-1{fill:url(#linear-gradient);}.cls-2{fill:rgba(255,255,255,0.6);}</style><linearGradient id="linear-gradient" x1="136.75" y1="71.96" x2="0" y2="71.96" gradientUnits="userSpaceOnUse"><stop offset="0" stop-color="#ffa448"/><stop offset="1" stop-color="#ff4459"/></linearGradient></defs><g id="Layer_2" data-name="Layer 2"><g id="Layer_1-2" data-name="Layer 1"><path class="cls-1" d="M83.11,72,133.9,17.7a10,10,0,0,0,1.81-11.44A11.37,11.37,0,0,0,125.32,0h-48A32.61,32.61,0,0,0,53.5,10.07L3.43,63.37a12.47,12.47,0,0,0,0,17.18L53.5,133.86a32.61,32.61,0,0,0,23.77,10.07h48.05a11.36,11.36,0,0,0,10.39-6.27,10,10,0,0,0-1.81-11.43Zm-20-54a19.46,19.46,0,0,1,14.17-6h45L74.61,62.89l-5.87-6.27a39.66,39.66,0,0,0-21.15-11.7h0l-1.46-.3a39,39,0,0,0-7.34-.78ZM20.83,80.78,13,72.58a.91.91,0,0,1-.26-.62,1,1,0,0,1,.26-.62l7.79-8.19a24.25,24.25,0,0,1,17.54-7.36,25.15,25.15,0,0,1,5,.51l1.46.3h0a26.83,26.83,0,0,1,14.27,7.89l7,7.47-7,7.47a26.77,26.77,0,0,1-14.27,7.9l-1.46.3A24.53,24.53,0,0,1,20.83,80.78ZM77.27,132a19.43,19.43,0,0,1-14.17-6L38.78,100.08a39,39,0,0,0,7.35-.78l1.46-.3h0A39.64,39.64,0,0,0,68.74,87.31L74.61,81,122.29,132Z"/><path class="cls-2" d="M298.3,85.71a24.5,24.5,0,0,1-6.1,4.44,15.2,15.2,0,0,1-7,1.68c-3.35,0-5.78-1-7.41-2.89s-2.5-4.79-2.5-8.45V39.13h-17.1V80.49c0,.37,0,.74,0,1.05s0,.61,0,.87a31.25,31.25,0,0,0,1.39,8.12,22.77,22.77,0,0,0,4.29,8,19.57,19.57,0,0,0,7.06,5.24,23.68,23.68,0,0,0,9.57,1.85A24.52,24.52,0,0,0,292,103a34.21,34.21,0,0,0,7.69-5.44l.74,3.58a4.49,4.49,0,0,0,4.7,3.43h10.27V39.13H298.3Z"/><path class="cls-2" d="M414.06,44.77a18.7,18.7,0,0,0-7.21-5,26.41,26.41,0,0,0-9.71-1.68,29.14,29.14,0,0,0-6.25.7A24.13,24.13,0,0,0,385,41a21.55,21.55,0,0,0-5.13,3.85,20,20,0,0,0-3,3.95,20,20,0,0,0-5.34-7.24,15.84,15.84,0,0,0-10.47-3.45,21.1,21.1,0,0,0-5.48.67A22.67,22.67,0,0,0,351,40.66a22.37,22.37,0,0,0-4.06,2.78c-.83.7-1.64,1.45-2.42,2.24l-.67-3.15a4.66,4.66,0,0,0-4.76-3.4H328.79v65.46h17.1V57.42a20.21,20.21,0,0,1,4.92-4.07,11.72,11.72,0,0,1,5.81-1.52c3,0,5.33.88,6.87,2.61s2.35,4.71,2.35,8.73v41.42H383V63.17a14.22,14.22,0,0,1,.81-5,9.27,9.27,0,0,1,5.44-5.64,10.74,10.74,0,0,1,4-.74c3.21,0,5.55.91,7.16,2.77s2.45,4.74,2.45,8.57v41.42H420V63.17a33.75,33.75,0,0,0-1.5-10.51A21.52,21.52,0,0,0,414.06,44.77Z"/><path class="cls-2" d="M472.3,85.71a25.25,25.25,0,0,1-6.1,4.44,15.32,15.32,0,0,1-7,1.68c-3.35,0-5.78-1-7.43-2.89s-2.48-4.78-2.48-8.45V39.13H432.13V80.49a34,34,0,0,0,1.44,10,22.74,22.74,0,0,0,4.3,8,19.31,19.31,0,0,0,7.05,5.25,23.73,23.73,0,0,0,9.58,1.85A24.65,24.65,0,0,0,466,103a34.7,34.7,0,0,0,7.68-5.44l.75,3.57a4.47,4.47,0,0,0,4.7,3.44H489.4V39.13H472.3Z"/><rect class="cls-2" x="502.96" y="10.58" width="17.1" height="94.01"/><path class="cls-2" d="M548.93,88a10.39,10.39,0,0,0-3.24-2.16,10.53,10.53,0,0,0-8.12,0A10.65,10.65,0,0,0,534.31,88a9.88,9.88,0,0,0-2.14,3.27,10.75,10.75,0,0,0,0,8,9.65,9.65,0,0,0,5.41,5.37,10.47,10.47,0,0,0,4.07.79,10.1,10.1,0,0,0,4-.79,9.69,9.69,0,0,0,3.27-2.13,9.94,9.94,0,0,0,2.22-3.23A10.26,10.26,0,0,0,548.93,88Z"/><rect class="cls-2" x="563.6" y="39.13" width="17.17" height="65.46"/><path class="cls-2" d="M579.67,13.87h0a11,11,0,0,0-3.41-2.26,10.59,10.59,0,0,0-8.32,0,11.08,11.08,0,0,0-3.33,2.26,10.9,10.9,0,0,0-2.27,3.39,10.67,10.67,0,0,0-.85,4.19,9.89,9.89,0,0,0,.86,4.08,10.78,10.78,0,0,0,2.26,3.33A11.18,11.18,0,0,0,568,31.12a10.22,10.22,0,0,0,4.11.85,10.76,10.76,0,0,0,4.2-.85A11,11,0,0,0,582,25.55a9.77,9.77,0,0,0,.88-4.1,10.33,10.33,0,0,0-.88-4.22A11.38,11.38,0,0,0,579.67,13.87Z"/><path class="cls-2" d="M653.71,57.84a28.59,28.59,0,0,0-16.8-17.35,38.5,38.5,0,0,0-26.49,0,29.2,29.2,0,0,0-10.28,6.73,29.86,29.86,0,0,0-6.6,10.62,39.75,39.75,0,0,0-2.31,13.89,40,40,0,0,0,2.31,14,30.88,30.88,0,0,0,6.59,10.68,28.93,28.93,0,0,0,10.29,6.79,38.5,38.5,0,0,0,26.49,0,29.08,29.08,0,0,0,10.24-6.79,30,30,0,0,0,6.56-10.69,40.31,40.31,0,0,0,2.29-14A40.11,40.11,0,0,0,653.71,57.84Zm-15.3,14c0,6.65-1.23,11.74-3.67,15.12h0c-2.38,3.34-6,5-11,5s-8.79-1.64-11.23-5-3.7-8.45-3.7-15.08,1.25-11.72,3.7-15.17,6.11-5,11.23-5,8.65,1.64,11,5S638.41,65.21,638.41,71.86Z"/><path class="cls-2" d="M242.9,86.31a5,5,0,0,0-3.11,1.07c-.77.59-1.64,1.26-2.69,2a16.84,16.84,0,0,1-3.63,1.88,15.37,15.37,0,0,1-5.59.84,16,16,0,0,1-3.11-.29l-.33-.07A20.2,20.2,0,0,1,227,51.48a21.17,21.17,0,0,1,2.3.12,14.94,14.94,0,0,1,4,.65,19,19,0,0,1,3.53,1.54q1.55.89,2.64,1.59a5,5,0,0,0,2.77.85,3.78,3.78,0,0,0,2.41-.66A7.4,7.4,0,0,0,246.15,54l4.49-6.2-.53-.53a33,33,0,0,0-4.53-3.78l-.17-.24h-.2a32.38,32.38,0,0,0-5-2.74,32.73,32.73,0,0,0-12.87-2.36,34.09,34.09,0,0,0-13.65,2.57,3.52,3.52,0,0,0-.39.17,33.13,33.13,0,0,0-4.12,60,25.69,25.69,0,0,0,4.48,2.41,29.28,29.28,0,0,0,11.45,2.27c.31,0,.61,0,.9,0a44,44,0,0,0,6-.49,32,32,0,0,0,6.77-1.75,31.24,31.24,0,0,0,6.35-3.32,28.73,28.73,0,0,0,5.71-5.16l.48-.55-4.83-6.1A4,4,0,0,0,242.9,86.31Z"/></g></g></svg>